<mxfile host="Electron" modified="2024-02-05T20:07:45.413Z" agent="Mozilla/5.0 (Macintosh; Intel Mac OS X 10_15_7) AppleWebKit/537.36 (KHTML, like Gecko) draw.io/23.0.2 Chrome/120.0.6099.109 Electron/28.1.0 Safari/537.36" etag="FMNMZKpbXUVhqcvw1WNf" version="23.0.2" type="device">
  <diagram id="C5RBs43oDa-KdzZeNtuy" name="Page-1">
    <mxGraphModel dx="2049" dy="1269" grid="1" gridSize="50" guides="1" tooltips="1" connect="1" arrows="1" fold="1" page="1" pageScale="1" pageWidth="1600" pageHeight="900" background="#FFFFFF" math="0" shadow="0">
      <root>
        <mxCell id="WIyWlLk6GJQsqaUBKTNV-0" />
        <mxCell id="WIyWlLk6GJQsqaUBKTNV-1" parent="WIyWlLk6GJQsqaUBKTNV-0" />
        <mxCell id="KPx5T1zz_B8qp5kBZjDh-2" value="" style="edgeStyle=orthogonalEdgeStyle;rounded=1;sketch=1;hachureGap=4;jiggle=2;curveFitting=1;orthogonalLoop=1;jettySize=auto;html=1;fontFamily=Architects Daughter;fontSource=https%3A%2F%2Ffonts.googleapis.com%2Fcss%3Ffamily%3DArchitects%2BDaughter;fontSize=16;strokeColor=#000000;endArrow=block;endFill=1;curved=0;strokeWidth=2;" parent="WIyWlLk6GJQsqaUBKTNV-1" source="KPx5T1zz_B8qp5kBZjDh-0" target="KPx5T1zz_B8qp5kBZjDh-1" edge="1">
          <mxGeometry relative="1" as="geometry" />
        </mxCell>
        <mxCell id="KPx5T1zz_B8qp5kBZjDh-0" value="Frame" style="ellipse;whiteSpace=wrap;html=1;aspect=fixed;sketch=1;hachureGap=4;jiggle=2;curveFitting=1;fontFamily=Architects Daughter;fontSource=https%3A%2F%2Ffonts.googleapis.com%2Fcss%3Ffamily%3DArchitects%2BDaughter;fontSize=20;labelBackgroundColor=#FFFFFF;fillColor=#FFFFFF;strokeColor=#000000;fontColor=#000000;labelBorderColor=none;" parent="WIyWlLk6GJQsqaUBKTNV-1" vertex="1">
          <mxGeometry x="117" y="46" width="170" height="170" as="geometry" />
        </mxCell>
        <mxCell id="KPx5T1zz_B8qp5kBZjDh-4" value="" style="edgeStyle=orthogonalEdgeStyle;rounded=1;sketch=1;hachureGap=4;jiggle=2;curveFitting=1;orthogonalLoop=1;jettySize=auto;html=1;fontFamily=Architects Daughter;fontSource=https%3A%2F%2Ffonts.googleapis.com%2Fcss%3Ffamily%3DArchitects%2BDaughter;fontSize=16;endArrow=block;strokeColor=#000000;endFill=1;strokeWidth=2;" parent="WIyWlLk6GJQsqaUBKTNV-1" source="KPx5T1zz_B8qp5kBZjDh-1" target="KPx5T1zz_B8qp5kBZjDh-3" edge="1">
          <mxGeometry relative="1" as="geometry" />
        </mxCell>
        <mxCell id="KPx5T1zz_B8qp5kBZjDh-1" value="Prepare" style="ellipse;whiteSpace=wrap;html=1;aspect=fixed;sketch=1;hachureGap=4;jiggle=2;curveFitting=1;fontFamily=Architects Daughter;fontSource=https%3A%2F%2Ffonts.googleapis.com%2Fcss%3Ffamily%3DArchitects%2BDaughter;fontSize=20;labelBackgroundColor=#FFFFFF;fillColor=#FFFFFF;strokeColor=#000000;fontColor=#000000;labelBorderColor=none;" parent="WIyWlLk6GJQsqaUBKTNV-1" vertex="1">
          <mxGeometry x="517" y="46" width="170" height="170" as="geometry" />
        </mxCell>
        <mxCell id="KPx5T1zz_B8qp5kBZjDh-6" value="" style="edgeStyle=orthogonalEdgeStyle;rounded=1;sketch=1;hachureGap=4;jiggle=2;curveFitting=1;orthogonalLoop=1;jettySize=auto;html=1;fontFamily=Architects Daughter;fontSource=https%3A%2F%2Ffonts.googleapis.com%2Fcss%3Ffamily%3DArchitects%2BDaughter;fontSize=16;endArrow=block;strokeColor=#000000;endFill=1;strokeWidth=2;" parent="WIyWlLk6GJQsqaUBKTNV-1" source="KPx5T1zz_B8qp5kBZjDh-3" target="KPx5T1zz_B8qp5kBZjDh-5" edge="1">
          <mxGeometry relative="1" as="geometry" />
        </mxCell>
        <mxCell id="iZ_dV3kTZDY7ZV6axB1K-35" style="rounded=1;sketch=1;hachureGap=4;jiggle=2;curveFitting=1;orthogonalLoop=1;jettySize=auto;html=1;entryX=0.5;entryY=0;entryDx=0;entryDy=0;fontFamily=Architects Daughter;fontSource=https%3A%2F%2Ffonts.googleapis.com%2Fcss%3Ffamily%3DArchitects%2BDaughter;fontSize=16;exitX=0.5;exitY=1;exitDx=0;exitDy=0;" edge="1" parent="WIyWlLk6GJQsqaUBKTNV-1" source="KPx5T1zz_B8qp5kBZjDh-3" target="iZ_dV3kTZDY7ZV6axB1K-3">
          <mxGeometry relative="1" as="geometry" />
        </mxCell>
        <mxCell id="iZ_dV3kTZDY7ZV6axB1K-36" style="rounded=0;sketch=1;hachureGap=4;jiggle=2;curveFitting=1;orthogonalLoop=1;jettySize=auto;html=1;entryX=0.5;entryY=0;entryDx=0;entryDy=0;fontFamily=Architects Daughter;fontSource=https%3A%2F%2Ffonts.googleapis.com%2Fcss%3Ffamily%3DArchitects%2BDaughter;fontSize=16;" edge="1" parent="WIyWlLk6GJQsqaUBKTNV-1" source="KPx5T1zz_B8qp5kBZjDh-3" target="iZ_dV3kTZDY7ZV6axB1K-4">
          <mxGeometry relative="1" as="geometry" />
        </mxCell>
        <mxCell id="iZ_dV3kTZDY7ZV6axB1K-37" style="rounded=1;sketch=1;hachureGap=4;jiggle=2;curveFitting=1;orthogonalLoop=1;jettySize=auto;html=1;entryX=0.5;entryY=0;entryDx=0;entryDy=0;fontFamily=Architects Daughter;fontSource=https%3A%2F%2Ffonts.googleapis.com%2Fcss%3Ffamily%3DArchitects%2BDaughter;fontSize=16;curved=0;" edge="1" parent="WIyWlLk6GJQsqaUBKTNV-1" target="iZ_dV3kTZDY7ZV6axB1K-5">
          <mxGeometry relative="1" as="geometry">
            <mxPoint x="1000" y="216" as="sourcePoint" />
          </mxGeometry>
        </mxCell>
        <mxCell id="KPx5T1zz_B8qp5kBZjDh-3" value="Analyze" style="ellipse;whiteSpace=wrap;html=1;aspect=fixed;sketch=1;hachureGap=4;jiggle=2;curveFitting=1;fontFamily=Architects Daughter;fontSource=https%3A%2F%2Ffonts.googleapis.com%2Fcss%3Ffamily%3DArchitects%2BDaughter;fontSize=20;labelBackgroundColor=#FFFFFF;fillColor=#FFFFFF;strokeColor=#000000;fontColor=#000000;labelBorderColor=none;" parent="WIyWlLk6GJQsqaUBKTNV-1" vertex="1">
          <mxGeometry x="918" y="46" width="170" height="170" as="geometry" />
        </mxCell>
        <mxCell id="KPx5T1zz_B8qp5kBZjDh-5" value="Communicate" style="ellipse;whiteSpace=wrap;html=1;aspect=fixed;sketch=1;hachureGap=4;jiggle=2;curveFitting=1;fontFamily=Architects Daughter;fontSource=https%3A%2F%2Ffonts.googleapis.com%2Fcss%3Ffamily%3DArchitects%2BDaughter;fontSize=20;labelBackgroundColor=#FFFFFF;fontColor=#000000;fillColor=#FFFFFF;labelBorderColor=none;strokeColor=#000000;" parent="WIyWlLk6GJQsqaUBKTNV-1" vertex="1">
          <mxGeometry x="1313" y="46" width="170" height="170" as="geometry" />
        </mxCell>
        <mxCell id="KPx5T1zz_B8qp5kBZjDh-8" value="" style="shape=table;startSize=0;container=1;collapsible=0;childLayout=tableLayout;fontSize=20;sketch=1;hachureGap=4;jiggle=2;curveFitting=1;fontFamily=Architects Daughter;fontSource=https%3A%2F%2Ffonts.googleapis.com%2Fcss%3Ffamily%3DArchitects%2BDaughter;fillColor=#FFFFFF;strokeColor=#000000;fontColor=#000000;labelBackgroundColor=#FFFFFF;labelBorderColor=none;" parent="WIyWlLk6GJQsqaUBKTNV-1" vertex="1">
          <mxGeometry x="552" y="266" width="100" height="100" as="geometry" />
        </mxCell>
        <mxCell id="KPx5T1zz_B8qp5kBZjDh-9" value="" style="shape=tableRow;horizontal=0;startSize=0;swimlaneHead=0;swimlaneBody=0;strokeColor=inherit;top=0;left=0;bottom=0;right=0;collapsible=0;dropTarget=0;fillColor=none;points=[[0,0.5],[1,0.5]];portConstraint=eastwest;fontSize=16;sketch=1;hachureGap=4;jiggle=2;curveFitting=1;fontFamily=Architects Daughter;fontSource=https%3A%2F%2Ffonts.googleapis.com%2Fcss%3Ffamily%3DArchitects%2BDaughter;" parent="KPx5T1zz_B8qp5kBZjDh-8" vertex="1">
          <mxGeometry width="100" height="20" as="geometry" />
        </mxCell>
        <mxCell id="KPx5T1zz_B8qp5kBZjDh-10" value="" style="shape=partialRectangle;html=1;whiteSpace=wrap;connectable=0;strokeColor=inherit;overflow=hidden;fillColor=none;top=0;left=0;bottom=0;right=0;pointerEvents=1;fontSize=16;sketch=1;hachureGap=4;jiggle=2;curveFitting=1;fontFamily=Architects Daughter;fontSource=https%3A%2F%2Ffonts.googleapis.com%2Fcss%3Ffamily%3DArchitects%2BDaughter;" parent="KPx5T1zz_B8qp5kBZjDh-9" vertex="1">
          <mxGeometry width="33" height="20" as="geometry">
            <mxRectangle width="33" height="20" as="alternateBounds" />
          </mxGeometry>
        </mxCell>
        <mxCell id="KPx5T1zz_B8qp5kBZjDh-11" value="" style="shape=partialRectangle;html=1;whiteSpace=wrap;connectable=0;strokeColor=inherit;overflow=hidden;fillColor=none;top=0;left=0;bottom=0;right=0;pointerEvents=1;fontSize=16;sketch=1;hachureGap=4;jiggle=2;curveFitting=1;fontFamily=Architects Daughter;fontSource=https%3A%2F%2Ffonts.googleapis.com%2Fcss%3Ffamily%3DArchitects%2BDaughter;" parent="KPx5T1zz_B8qp5kBZjDh-9" vertex="1">
          <mxGeometry x="33" width="34" height="20" as="geometry">
            <mxRectangle width="34" height="20" as="alternateBounds" />
          </mxGeometry>
        </mxCell>
        <mxCell id="KPx5T1zz_B8qp5kBZjDh-12" value="" style="shape=partialRectangle;html=1;whiteSpace=wrap;connectable=0;strokeColor=inherit;overflow=hidden;fillColor=none;top=0;left=0;bottom=0;right=0;pointerEvents=1;fontSize=16;sketch=1;hachureGap=4;jiggle=2;curveFitting=1;fontFamily=Architects Daughter;fontSource=https%3A%2F%2Ffonts.googleapis.com%2Fcss%3Ffamily%3DArchitects%2BDaughter;" parent="KPx5T1zz_B8qp5kBZjDh-9" vertex="1">
          <mxGeometry x="67" width="33" height="20" as="geometry">
            <mxRectangle width="33" height="20" as="alternateBounds" />
          </mxGeometry>
        </mxCell>
        <mxCell id="KPx5T1zz_B8qp5kBZjDh-13" value="" style="shape=tableRow;horizontal=0;startSize=0;swimlaneHead=0;swimlaneBody=0;strokeColor=inherit;top=0;left=0;bottom=0;right=0;collapsible=0;dropTarget=0;fillColor=none;points=[[0,0.5],[1,0.5]];portConstraint=eastwest;fontSize=16;sketch=1;hachureGap=4;jiggle=2;curveFitting=1;fontFamily=Architects Daughter;fontSource=https%3A%2F%2Ffonts.googleapis.com%2Fcss%3Ffamily%3DArchitects%2BDaughter;" parent="KPx5T1zz_B8qp5kBZjDh-8" vertex="1">
          <mxGeometry y="20" width="100" height="20" as="geometry" />
        </mxCell>
        <mxCell id="KPx5T1zz_B8qp5kBZjDh-14" value="" style="shape=partialRectangle;html=1;whiteSpace=wrap;connectable=0;strokeColor=inherit;overflow=hidden;fillColor=none;top=0;left=0;bottom=0;right=0;pointerEvents=1;fontSize=16;sketch=1;hachureGap=4;jiggle=2;curveFitting=1;fontFamily=Architects Daughter;fontSource=https%3A%2F%2Ffonts.googleapis.com%2Fcss%3Ffamily%3DArchitects%2BDaughter;" parent="KPx5T1zz_B8qp5kBZjDh-13" vertex="1">
          <mxGeometry width="33" height="20" as="geometry">
            <mxRectangle width="33" height="20" as="alternateBounds" />
          </mxGeometry>
        </mxCell>
        <mxCell id="KPx5T1zz_B8qp5kBZjDh-15" value="" style="shape=partialRectangle;html=1;whiteSpace=wrap;connectable=0;strokeColor=inherit;overflow=hidden;fillColor=none;top=0;left=0;bottom=0;right=0;pointerEvents=1;fontSize=16;sketch=1;hachureGap=4;jiggle=2;curveFitting=1;fontFamily=Architects Daughter;fontSource=https%3A%2F%2Ffonts.googleapis.com%2Fcss%3Ffamily%3DArchitects%2BDaughter;" parent="KPx5T1zz_B8qp5kBZjDh-13" vertex="1">
          <mxGeometry x="33" width="34" height="20" as="geometry">
            <mxRectangle width="34" height="20" as="alternateBounds" />
          </mxGeometry>
        </mxCell>
        <mxCell id="KPx5T1zz_B8qp5kBZjDh-16" value="" style="shape=partialRectangle;html=1;whiteSpace=wrap;connectable=0;strokeColor=inherit;overflow=hidden;fillColor=none;top=0;left=0;bottom=0;right=0;pointerEvents=1;fontSize=16;sketch=1;hachureGap=4;jiggle=2;curveFitting=1;fontFamily=Architects Daughter;fontSource=https%3A%2F%2Ffonts.googleapis.com%2Fcss%3Ffamily%3DArchitects%2BDaughter;" parent="KPx5T1zz_B8qp5kBZjDh-13" vertex="1">
          <mxGeometry x="67" width="33" height="20" as="geometry">
            <mxRectangle width="33" height="20" as="alternateBounds" />
          </mxGeometry>
        </mxCell>
        <mxCell id="KPx5T1zz_B8qp5kBZjDh-17" value="" style="shape=tableRow;horizontal=0;startSize=0;swimlaneHead=0;swimlaneBody=0;strokeColor=inherit;top=0;left=0;bottom=0;right=0;collapsible=0;dropTarget=0;fillColor=none;points=[[0,0.5],[1,0.5]];portConstraint=eastwest;fontSize=16;sketch=1;hachureGap=4;jiggle=2;curveFitting=1;fontFamily=Architects Daughter;fontSource=https%3A%2F%2Ffonts.googleapis.com%2Fcss%3Ffamily%3DArchitects%2BDaughter;" parent="KPx5T1zz_B8qp5kBZjDh-8" vertex="1">
          <mxGeometry y="40" width="100" height="20" as="geometry" />
        </mxCell>
        <mxCell id="KPx5T1zz_B8qp5kBZjDh-18" value="" style="shape=partialRectangle;html=1;whiteSpace=wrap;connectable=0;strokeColor=inherit;overflow=hidden;fillColor=none;top=0;left=0;bottom=0;right=0;pointerEvents=1;fontSize=16;sketch=1;hachureGap=4;jiggle=2;curveFitting=1;fontFamily=Architects Daughter;fontSource=https%3A%2F%2Ffonts.googleapis.com%2Fcss%3Ffamily%3DArchitects%2BDaughter;" parent="KPx5T1zz_B8qp5kBZjDh-17" vertex="1">
          <mxGeometry width="33" height="20" as="geometry">
            <mxRectangle width="33" height="20" as="alternateBounds" />
          </mxGeometry>
        </mxCell>
        <mxCell id="KPx5T1zz_B8qp5kBZjDh-19" value="" style="shape=partialRectangle;html=1;whiteSpace=wrap;connectable=0;strokeColor=inherit;overflow=hidden;fillColor=none;top=0;left=0;bottom=0;right=0;pointerEvents=1;fontSize=16;sketch=1;hachureGap=4;jiggle=2;curveFitting=1;fontFamily=Architects Daughter;fontSource=https%3A%2F%2Ffonts.googleapis.com%2Fcss%3Ffamily%3DArchitects%2BDaughter;" parent="KPx5T1zz_B8qp5kBZjDh-17" vertex="1">
          <mxGeometry x="33" width="34" height="20" as="geometry">
            <mxRectangle width="34" height="20" as="alternateBounds" />
          </mxGeometry>
        </mxCell>
        <mxCell id="KPx5T1zz_B8qp5kBZjDh-20" value="" style="shape=partialRectangle;html=1;whiteSpace=wrap;connectable=0;strokeColor=inherit;overflow=hidden;fillColor=none;top=0;left=0;bottom=0;right=0;pointerEvents=1;fontSize=16;sketch=1;hachureGap=4;jiggle=2;curveFitting=1;fontFamily=Architects Daughter;fontSource=https%3A%2F%2Ffonts.googleapis.com%2Fcss%3Ffamily%3DArchitects%2BDaughter;" parent="KPx5T1zz_B8qp5kBZjDh-17" vertex="1">
          <mxGeometry x="67" width="33" height="20" as="geometry">
            <mxRectangle width="33" height="20" as="alternateBounds" />
          </mxGeometry>
        </mxCell>
        <mxCell id="KPx5T1zz_B8qp5kBZjDh-25" value="" style="shape=tableRow;horizontal=0;startSize=0;swimlaneHead=0;swimlaneBody=0;strokeColor=inherit;top=0;left=0;bottom=0;right=0;collapsible=0;dropTarget=0;fillColor=none;points=[[0,0.5],[1,0.5]];portConstraint=eastwest;fontSize=16;sketch=1;hachureGap=4;jiggle=2;curveFitting=1;fontFamily=Architects Daughter;fontSource=https%3A%2F%2Ffonts.googleapis.com%2Fcss%3Ffamily%3DArchitects%2BDaughter;" parent="KPx5T1zz_B8qp5kBZjDh-8" vertex="1">
          <mxGeometry y="60" width="100" height="20" as="geometry" />
        </mxCell>
        <mxCell id="KPx5T1zz_B8qp5kBZjDh-26" value="" style="shape=partialRectangle;html=1;whiteSpace=wrap;connectable=0;strokeColor=inherit;overflow=hidden;fillColor=none;top=0;left=0;bottom=0;right=0;pointerEvents=1;fontSize=16;sketch=1;hachureGap=4;jiggle=2;curveFitting=1;fontFamily=Architects Daughter;fontSource=https%3A%2F%2Ffonts.googleapis.com%2Fcss%3Ffamily%3DArchitects%2BDaughter;" parent="KPx5T1zz_B8qp5kBZjDh-25" vertex="1">
          <mxGeometry width="33" height="20" as="geometry">
            <mxRectangle width="33" height="20" as="alternateBounds" />
          </mxGeometry>
        </mxCell>
        <mxCell id="KPx5T1zz_B8qp5kBZjDh-27" value="" style="shape=partialRectangle;html=1;whiteSpace=wrap;connectable=0;strokeColor=inherit;overflow=hidden;fillColor=none;top=0;left=0;bottom=0;right=0;pointerEvents=1;fontSize=16;sketch=1;hachureGap=4;jiggle=2;curveFitting=1;fontFamily=Architects Daughter;fontSource=https%3A%2F%2Ffonts.googleapis.com%2Fcss%3Ffamily%3DArchitects%2BDaughter;" parent="KPx5T1zz_B8qp5kBZjDh-25" vertex="1">
          <mxGeometry x="33" width="34" height="20" as="geometry">
            <mxRectangle width="34" height="20" as="alternateBounds" />
          </mxGeometry>
        </mxCell>
        <mxCell id="KPx5T1zz_B8qp5kBZjDh-28" value="" style="shape=partialRectangle;html=1;whiteSpace=wrap;connectable=0;strokeColor=inherit;overflow=hidden;fillColor=none;top=0;left=0;bottom=0;right=0;pointerEvents=1;fontSize=16;sketch=1;hachureGap=4;jiggle=2;curveFitting=1;fontFamily=Architects Daughter;fontSource=https%3A%2F%2Ffonts.googleapis.com%2Fcss%3Ffamily%3DArchitects%2BDaughter;" parent="KPx5T1zz_B8qp5kBZjDh-25" vertex="1">
          <mxGeometry x="67" width="33" height="20" as="geometry">
            <mxRectangle width="33" height="20" as="alternateBounds" />
          </mxGeometry>
        </mxCell>
        <mxCell id="KPx5T1zz_B8qp5kBZjDh-29" value="" style="shape=tableRow;horizontal=0;startSize=0;swimlaneHead=0;swimlaneBody=0;strokeColor=inherit;top=0;left=0;bottom=0;right=0;collapsible=0;dropTarget=0;fillColor=none;points=[[0,0.5],[1,0.5]];portConstraint=eastwest;fontSize=16;sketch=1;hachureGap=4;jiggle=2;curveFitting=1;fontFamily=Architects Daughter;fontSource=https%3A%2F%2Ffonts.googleapis.com%2Fcss%3Ffamily%3DArchitects%2BDaughter;" parent="KPx5T1zz_B8qp5kBZjDh-8" vertex="1">
          <mxGeometry y="80" width="100" height="20" as="geometry" />
        </mxCell>
        <mxCell id="KPx5T1zz_B8qp5kBZjDh-30" value="" style="shape=partialRectangle;html=1;whiteSpace=wrap;connectable=0;strokeColor=inherit;overflow=hidden;fillColor=none;top=0;left=0;bottom=0;right=0;pointerEvents=1;fontSize=16;sketch=1;hachureGap=4;jiggle=2;curveFitting=1;fontFamily=Architects Daughter;fontSource=https%3A%2F%2Ffonts.googleapis.com%2Fcss%3Ffamily%3DArchitects%2BDaughter;" parent="KPx5T1zz_B8qp5kBZjDh-29" vertex="1">
          <mxGeometry width="33" height="20" as="geometry">
            <mxRectangle width="33" height="20" as="alternateBounds" />
          </mxGeometry>
        </mxCell>
        <mxCell id="KPx5T1zz_B8qp5kBZjDh-31" value="" style="shape=partialRectangle;html=1;whiteSpace=wrap;connectable=0;strokeColor=inherit;overflow=hidden;fillColor=none;top=0;left=0;bottom=0;right=0;pointerEvents=1;fontSize=16;sketch=1;hachureGap=4;jiggle=2;curveFitting=1;fontFamily=Architects Daughter;fontSource=https%3A%2F%2Ffonts.googleapis.com%2Fcss%3Ffamily%3DArchitects%2BDaughter;" parent="KPx5T1zz_B8qp5kBZjDh-29" vertex="1">
          <mxGeometry x="33" width="34" height="20" as="geometry">
            <mxRectangle width="34" height="20" as="alternateBounds" />
          </mxGeometry>
        </mxCell>
        <mxCell id="KPx5T1zz_B8qp5kBZjDh-32" value="" style="shape=partialRectangle;html=1;whiteSpace=wrap;connectable=0;strokeColor=inherit;overflow=hidden;fillColor=none;top=0;left=0;bottom=0;right=0;pointerEvents=1;fontSize=16;sketch=1;hachureGap=4;jiggle=2;curveFitting=1;fontFamily=Architects Daughter;fontSource=https%3A%2F%2Ffonts.googleapis.com%2Fcss%3Ffamily%3DArchitects%2BDaughter;" parent="KPx5T1zz_B8qp5kBZjDh-29" vertex="1">
          <mxGeometry x="67" width="33" height="20" as="geometry">
            <mxRectangle width="33" height="20" as="alternateBounds" />
          </mxGeometry>
        </mxCell>
        <mxCell id="KPx5T1zz_B8qp5kBZjDh-24" value="" style="group" parent="WIyWlLk6GJQsqaUBKTNV-1" vertex="1" connectable="0">
          <mxGeometry x="389" y="267" width="150" height="167" as="geometry" />
        </mxCell>
        <mxCell id="KPx5T1zz_B8qp5kBZjDh-21" value="" style="sketch=1;pointerEvents=1;shadow=0;dashed=0;html=1;strokeColor=#000000;fillColor=#FFFFFF;labelPosition=center;verticalLabelPosition=bottom;verticalAlign=middle;outlineConnect=0;align=center;shape=mxgraph.office.concepts.document;hachureGap=4;jiggle=2;curveFitting=1;fontFamily=Architects Daughter;fontSource=https%3A%2F%2Ffonts.googleapis.com%2Fcss%3Ffamily%3DArchitects%2BDaughter;fontSize=20;fontColor=#000000;labelBackgroundColor=#FFFFFF;labelBorderColor=none;" parent="KPx5T1zz_B8qp5kBZjDh-24" vertex="1">
          <mxGeometry width="74.83840256551585" height="90.04147465437788" as="geometry" />
        </mxCell>
        <mxCell id="KPx5T1zz_B8qp5kBZjDh-22" value="" style="sketch=1;pointerEvents=1;shadow=0;dashed=0;html=1;strokeColor=#000000;fillColor=#FFFFFF;labelPosition=center;verticalLabelPosition=bottom;verticalAlign=middle;outlineConnect=0;align=center;shape=mxgraph.office.concepts.document;hachureGap=4;jiggle=2;curveFitting=1;fontFamily=Architects Daughter;fontSource=https%3A%2F%2Ffonts.googleapis.com%2Fcss%3Ffamily%3DArchitects%2BDaughter;fontSize=20;fontColor=#000000;labelBackgroundColor=#FFFFFF;labelBorderColor=none;" parent="KPx5T1zz_B8qp5kBZjDh-24" vertex="1">
          <mxGeometry x="37.58079871724207" y="38.47926267281106" width="74.83840256551585" height="90.04147465437788" as="geometry" />
        </mxCell>
        <mxCell id="KPx5T1zz_B8qp5kBZjDh-23" value="" style="sketch=1;pointerEvents=1;shadow=0;dashed=0;html=1;strokeColor=#000000;fillColor=#FFFFFF;labelPosition=center;verticalLabelPosition=bottom;verticalAlign=middle;outlineConnect=0;align=center;shape=mxgraph.office.concepts.document;hachureGap=4;jiggle=2;curveFitting=1;fontFamily=Architects Daughter;fontSource=https%3A%2F%2Ffonts.googleapis.com%2Fcss%3Ffamily%3DArchitects%2BDaughter;fontSize=20;fontColor=#000000;labelBackgroundColor=#FFFFFF;labelBorderColor=none;" parent="KPx5T1zz_B8qp5kBZjDh-24" vertex="1">
          <mxGeometry x="75.16159743448414" y="76.95852534562212" width="74.83840256551585" height="90.04147465437788" as="geometry" />
        </mxCell>
        <mxCell id="KPx5T1zz_B8qp5kBZjDh-33" value="" style="shape=table;startSize=0;container=1;collapsible=0;childLayout=tableLayout;fontSize=20;sketch=1;hachureGap=4;jiggle=2;curveFitting=1;fontFamily=Architects Daughter;fontSource=https%3A%2F%2Ffonts.googleapis.com%2Fcss%3Ffamily%3DArchitects%2BDaughter;fillColor=#FFFFFF;strokeColor=#000000;fontColor=#000000;labelBackgroundColor=#FFFFFF;labelBorderColor=none;" parent="WIyWlLk6GJQsqaUBKTNV-1" vertex="1">
          <mxGeometry x="671" y="266" width="135" height="120" as="geometry" />
        </mxCell>
        <mxCell id="KPx5T1zz_B8qp5kBZjDh-34" value="" style="shape=tableRow;horizontal=0;startSize=0;swimlaneHead=0;swimlaneBody=0;strokeColor=inherit;top=0;left=0;bottom=0;right=0;collapsible=0;dropTarget=0;fillColor=none;points=[[0,0.5],[1,0.5]];portConstraint=eastwest;fontSize=16;sketch=1;hachureGap=4;jiggle=2;curveFitting=1;fontFamily=Architects Daughter;fontSource=https%3A%2F%2Ffonts.googleapis.com%2Fcss%3Ffamily%3DArchitects%2BDaughter;" parent="KPx5T1zz_B8qp5kBZjDh-33" vertex="1">
          <mxGeometry width="135" height="20" as="geometry" />
        </mxCell>
        <mxCell id="KPx5T1zz_B8qp5kBZjDh-35" value="" style="shape=partialRectangle;html=1;whiteSpace=wrap;connectable=0;strokeColor=inherit;overflow=hidden;fillColor=none;top=0;left=0;bottom=0;right=0;pointerEvents=1;fontSize=16;sketch=1;hachureGap=4;jiggle=2;curveFitting=1;fontFamily=Architects Daughter;fontSource=https%3A%2F%2Ffonts.googleapis.com%2Fcss%3Ffamily%3DArchitects%2BDaughter;" parent="KPx5T1zz_B8qp5kBZjDh-34" vertex="1">
          <mxGeometry width="33" height="20" as="geometry">
            <mxRectangle width="33" height="20" as="alternateBounds" />
          </mxGeometry>
        </mxCell>
        <mxCell id="KPx5T1zz_B8qp5kBZjDh-36" value="" style="shape=partialRectangle;html=1;whiteSpace=wrap;connectable=0;strokeColor=inherit;overflow=hidden;fillColor=none;top=0;left=0;bottom=0;right=0;pointerEvents=1;fontSize=16;sketch=1;hachureGap=4;jiggle=2;curveFitting=1;fontFamily=Architects Daughter;fontSource=https%3A%2F%2Ffonts.googleapis.com%2Fcss%3Ffamily%3DArchitects%2BDaughter;" parent="KPx5T1zz_B8qp5kBZjDh-34" vertex="1">
          <mxGeometry x="33" width="32" height="20" as="geometry">
            <mxRectangle width="32" height="20" as="alternateBounds" />
          </mxGeometry>
        </mxCell>
        <mxCell id="KPx5T1zz_B8qp5kBZjDh-37" value="&lt;span style=&quot;white-space: pre;&quot;&gt;&#x9;&lt;/span&gt;" style="shape=partialRectangle;html=1;whiteSpace=wrap;connectable=0;strokeColor=inherit;overflow=hidden;fillColor=none;top=0;left=0;bottom=0;right=0;pointerEvents=1;fontSize=16;sketch=1;hachureGap=4;jiggle=2;curveFitting=1;fontFamily=Architects Daughter;fontSource=https%3A%2F%2Ffonts.googleapis.com%2Fcss%3Ffamily%3DArchitects%2BDaughter;" parent="KPx5T1zz_B8qp5kBZjDh-34" vertex="1">
          <mxGeometry x="65" width="35" height="20" as="geometry">
            <mxRectangle width="35" height="20" as="alternateBounds" />
          </mxGeometry>
        </mxCell>
        <mxCell id="KPx5T1zz_B8qp5kBZjDh-58" style="shape=partialRectangle;html=1;whiteSpace=wrap;connectable=0;strokeColor=inherit;overflow=hidden;fillColor=none;top=0;left=0;bottom=0;right=0;pointerEvents=1;fontSize=16;sketch=1;hachureGap=4;jiggle=2;curveFitting=1;fontFamily=Architects Daughter;fontSource=https%3A%2F%2Ffonts.googleapis.com%2Fcss%3Ffamily%3DArchitects%2BDaughter;" parent="KPx5T1zz_B8qp5kBZjDh-34" vertex="1">
          <mxGeometry x="100" width="35" height="20" as="geometry">
            <mxRectangle width="35" height="20" as="alternateBounds" />
          </mxGeometry>
        </mxCell>
        <mxCell id="KPx5T1zz_B8qp5kBZjDh-54" value="" style="shape=tableRow;horizontal=0;startSize=0;swimlaneHead=0;swimlaneBody=0;strokeColor=inherit;top=0;left=0;bottom=0;right=0;collapsible=0;dropTarget=0;fillColor=none;points=[[0,0.5],[1,0.5]];portConstraint=eastwest;fontSize=16;sketch=1;hachureGap=4;jiggle=2;curveFitting=1;fontFamily=Architects Daughter;fontSource=https%3A%2F%2Ffonts.googleapis.com%2Fcss%3Ffamily%3DArchitects%2BDaughter;" parent="KPx5T1zz_B8qp5kBZjDh-33" vertex="1">
          <mxGeometry y="20" width="135" height="20" as="geometry" />
        </mxCell>
        <mxCell id="KPx5T1zz_B8qp5kBZjDh-55" value="" style="shape=partialRectangle;html=1;whiteSpace=wrap;connectable=0;strokeColor=inherit;overflow=hidden;fillColor=none;top=0;left=0;bottom=0;right=0;pointerEvents=1;fontSize=16;sketch=1;hachureGap=4;jiggle=2;curveFitting=1;fontFamily=Architects Daughter;fontSource=https%3A%2F%2Ffonts.googleapis.com%2Fcss%3Ffamily%3DArchitects%2BDaughter;" parent="KPx5T1zz_B8qp5kBZjDh-54" vertex="1">
          <mxGeometry width="33" height="20" as="geometry">
            <mxRectangle width="33" height="20" as="alternateBounds" />
          </mxGeometry>
        </mxCell>
        <mxCell id="KPx5T1zz_B8qp5kBZjDh-56" value="" style="shape=partialRectangle;html=1;whiteSpace=wrap;connectable=0;strokeColor=inherit;overflow=hidden;fillColor=none;top=0;left=0;bottom=0;right=0;pointerEvents=1;fontSize=16;sketch=1;hachureGap=4;jiggle=2;curveFitting=1;fontFamily=Architects Daughter;fontSource=https%3A%2F%2Ffonts.googleapis.com%2Fcss%3Ffamily%3DArchitects%2BDaughter;" parent="KPx5T1zz_B8qp5kBZjDh-54" vertex="1">
          <mxGeometry x="33" width="32" height="20" as="geometry">
            <mxRectangle width="32" height="20" as="alternateBounds" />
          </mxGeometry>
        </mxCell>
        <mxCell id="KPx5T1zz_B8qp5kBZjDh-57" value="&lt;span style=&quot;white-space: pre;&quot;&gt;&#x9;&lt;/span&gt;" style="shape=partialRectangle;html=1;whiteSpace=wrap;connectable=0;strokeColor=inherit;overflow=hidden;fillColor=none;top=0;left=0;bottom=0;right=0;pointerEvents=1;fontSize=16;sketch=1;hachureGap=4;jiggle=2;curveFitting=1;fontFamily=Architects Daughter;fontSource=https%3A%2F%2Ffonts.googleapis.com%2Fcss%3Ffamily%3DArchitects%2BDaughter;" parent="KPx5T1zz_B8qp5kBZjDh-54" vertex="1">
          <mxGeometry x="65" width="35" height="20" as="geometry">
            <mxRectangle width="35" height="20" as="alternateBounds" />
          </mxGeometry>
        </mxCell>
        <mxCell id="KPx5T1zz_B8qp5kBZjDh-59" style="shape=partialRectangle;html=1;whiteSpace=wrap;connectable=0;strokeColor=inherit;overflow=hidden;fillColor=none;top=0;left=0;bottom=0;right=0;pointerEvents=1;fontSize=16;sketch=1;hachureGap=4;jiggle=2;curveFitting=1;fontFamily=Architects Daughter;fontSource=https%3A%2F%2Ffonts.googleapis.com%2Fcss%3Ffamily%3DArchitects%2BDaughter;" parent="KPx5T1zz_B8qp5kBZjDh-54" vertex="1">
          <mxGeometry x="100" width="35" height="20" as="geometry">
            <mxRectangle width="35" height="20" as="alternateBounds" />
          </mxGeometry>
        </mxCell>
        <mxCell id="KPx5T1zz_B8qp5kBZjDh-38" value="" style="shape=tableRow;horizontal=0;startSize=0;swimlaneHead=0;swimlaneBody=0;strokeColor=inherit;top=0;left=0;bottom=0;right=0;collapsible=0;dropTarget=0;fillColor=none;points=[[0,0.5],[1,0.5]];portConstraint=eastwest;fontSize=16;sketch=1;hachureGap=4;jiggle=2;curveFitting=1;fontFamily=Architects Daughter;fontSource=https%3A%2F%2Ffonts.googleapis.com%2Fcss%3Ffamily%3DArchitects%2BDaughter;" parent="KPx5T1zz_B8qp5kBZjDh-33" vertex="1">
          <mxGeometry y="40" width="135" height="20" as="geometry" />
        </mxCell>
        <mxCell id="KPx5T1zz_B8qp5kBZjDh-39" value="" style="shape=partialRectangle;html=1;whiteSpace=wrap;connectable=0;strokeColor=inherit;overflow=hidden;fillColor=none;top=0;left=0;bottom=0;right=0;pointerEvents=1;fontSize=16;sketch=1;hachureGap=4;jiggle=2;curveFitting=1;fontFamily=Architects Daughter;fontSource=https%3A%2F%2Ffonts.googleapis.com%2Fcss%3Ffamily%3DArchitects%2BDaughter;" parent="KPx5T1zz_B8qp5kBZjDh-38" vertex="1">
          <mxGeometry width="33" height="20" as="geometry">
            <mxRectangle width="33" height="20" as="alternateBounds" />
          </mxGeometry>
        </mxCell>
        <mxCell id="KPx5T1zz_B8qp5kBZjDh-40" value="" style="shape=partialRectangle;html=1;whiteSpace=wrap;connectable=0;strokeColor=inherit;overflow=hidden;fillColor=none;top=0;left=0;bottom=0;right=0;pointerEvents=1;fontSize=16;sketch=1;hachureGap=4;jiggle=2;curveFitting=1;fontFamily=Architects Daughter;fontSource=https%3A%2F%2Ffonts.googleapis.com%2Fcss%3Ffamily%3DArchitects%2BDaughter;" parent="KPx5T1zz_B8qp5kBZjDh-38" vertex="1">
          <mxGeometry x="33" width="32" height="20" as="geometry">
            <mxRectangle width="32" height="20" as="alternateBounds" />
          </mxGeometry>
        </mxCell>
        <mxCell id="KPx5T1zz_B8qp5kBZjDh-41" value="" style="shape=partialRectangle;html=1;whiteSpace=wrap;connectable=0;strokeColor=inherit;overflow=hidden;fillColor=none;top=0;left=0;bottom=0;right=0;pointerEvents=1;fontSize=16;sketch=1;hachureGap=4;jiggle=2;curveFitting=1;fontFamily=Architects Daughter;fontSource=https%3A%2F%2Ffonts.googleapis.com%2Fcss%3Ffamily%3DArchitects%2BDaughter;" parent="KPx5T1zz_B8qp5kBZjDh-38" vertex="1">
          <mxGeometry x="65" width="35" height="20" as="geometry">
            <mxRectangle width="35" height="20" as="alternateBounds" />
          </mxGeometry>
        </mxCell>
        <mxCell id="KPx5T1zz_B8qp5kBZjDh-60" style="shape=partialRectangle;html=1;whiteSpace=wrap;connectable=0;strokeColor=inherit;overflow=hidden;fillColor=none;top=0;left=0;bottom=0;right=0;pointerEvents=1;fontSize=16;sketch=1;hachureGap=4;jiggle=2;curveFitting=1;fontFamily=Architects Daughter;fontSource=https%3A%2F%2Ffonts.googleapis.com%2Fcss%3Ffamily%3DArchitects%2BDaughter;" parent="KPx5T1zz_B8qp5kBZjDh-38" vertex="1">
          <mxGeometry x="100" width="35" height="20" as="geometry">
            <mxRectangle width="35" height="20" as="alternateBounds" />
          </mxGeometry>
        </mxCell>
        <mxCell id="KPx5T1zz_B8qp5kBZjDh-42" value="" style="shape=tableRow;horizontal=0;startSize=0;swimlaneHead=0;swimlaneBody=0;strokeColor=inherit;top=0;left=0;bottom=0;right=0;collapsible=0;dropTarget=0;fillColor=none;points=[[0,0.5],[1,0.5]];portConstraint=eastwest;fontSize=16;sketch=1;hachureGap=4;jiggle=2;curveFitting=1;fontFamily=Architects Daughter;fontSource=https%3A%2F%2Ffonts.googleapis.com%2Fcss%3Ffamily%3DArchitects%2BDaughter;" parent="KPx5T1zz_B8qp5kBZjDh-33" vertex="1">
          <mxGeometry y="60" width="135" height="20" as="geometry" />
        </mxCell>
        <mxCell id="KPx5T1zz_B8qp5kBZjDh-43" value="" style="shape=partialRectangle;html=1;whiteSpace=wrap;connectable=0;strokeColor=inherit;overflow=hidden;fillColor=none;top=0;left=0;bottom=0;right=0;pointerEvents=1;fontSize=16;sketch=1;hachureGap=4;jiggle=2;curveFitting=1;fontFamily=Architects Daughter;fontSource=https%3A%2F%2Ffonts.googleapis.com%2Fcss%3Ffamily%3DArchitects%2BDaughter;" parent="KPx5T1zz_B8qp5kBZjDh-42" vertex="1">
          <mxGeometry width="33" height="20" as="geometry">
            <mxRectangle width="33" height="20" as="alternateBounds" />
          </mxGeometry>
        </mxCell>
        <mxCell id="KPx5T1zz_B8qp5kBZjDh-44" value="" style="shape=partialRectangle;html=1;whiteSpace=wrap;connectable=0;strokeColor=inherit;overflow=hidden;fillColor=none;top=0;left=0;bottom=0;right=0;pointerEvents=1;fontSize=16;sketch=1;hachureGap=4;jiggle=2;curveFitting=1;fontFamily=Architects Daughter;fontSource=https%3A%2F%2Ffonts.googleapis.com%2Fcss%3Ffamily%3DArchitects%2BDaughter;" parent="KPx5T1zz_B8qp5kBZjDh-42" vertex="1">
          <mxGeometry x="33" width="32" height="20" as="geometry">
            <mxRectangle width="32" height="20" as="alternateBounds" />
          </mxGeometry>
        </mxCell>
        <mxCell id="KPx5T1zz_B8qp5kBZjDh-45" value="" style="shape=partialRectangle;html=1;whiteSpace=wrap;connectable=0;strokeColor=inherit;overflow=hidden;fillColor=none;top=0;left=0;bottom=0;right=0;pointerEvents=1;fontSize=16;sketch=1;hachureGap=4;jiggle=2;curveFitting=1;fontFamily=Architects Daughter;fontSource=https%3A%2F%2Ffonts.googleapis.com%2Fcss%3Ffamily%3DArchitects%2BDaughter;" parent="KPx5T1zz_B8qp5kBZjDh-42" vertex="1">
          <mxGeometry x="65" width="35" height="20" as="geometry">
            <mxRectangle width="35" height="20" as="alternateBounds" />
          </mxGeometry>
        </mxCell>
        <mxCell id="KPx5T1zz_B8qp5kBZjDh-61" style="shape=partialRectangle;html=1;whiteSpace=wrap;connectable=0;strokeColor=inherit;overflow=hidden;fillColor=none;top=0;left=0;bottom=0;right=0;pointerEvents=1;fontSize=16;sketch=1;hachureGap=4;jiggle=2;curveFitting=1;fontFamily=Architects Daughter;fontSource=https%3A%2F%2Ffonts.googleapis.com%2Fcss%3Ffamily%3DArchitects%2BDaughter;" parent="KPx5T1zz_B8qp5kBZjDh-42" vertex="1">
          <mxGeometry x="100" width="35" height="20" as="geometry">
            <mxRectangle width="35" height="20" as="alternateBounds" />
          </mxGeometry>
        </mxCell>
        <mxCell id="KPx5T1zz_B8qp5kBZjDh-46" value="" style="shape=tableRow;horizontal=0;startSize=0;swimlaneHead=0;swimlaneBody=0;strokeColor=inherit;top=0;left=0;bottom=0;right=0;collapsible=0;dropTarget=0;fillColor=none;points=[[0,0.5],[1,0.5]];portConstraint=eastwest;fontSize=16;sketch=1;hachureGap=4;jiggle=2;curveFitting=1;fontFamily=Architects Daughter;fontSource=https%3A%2F%2Ffonts.googleapis.com%2Fcss%3Ffamily%3DArchitects%2BDaughter;" parent="KPx5T1zz_B8qp5kBZjDh-33" vertex="1">
          <mxGeometry y="80" width="135" height="20" as="geometry" />
        </mxCell>
        <mxCell id="KPx5T1zz_B8qp5kBZjDh-47" value="" style="shape=partialRectangle;html=1;whiteSpace=wrap;connectable=0;strokeColor=inherit;overflow=hidden;fillColor=none;top=0;left=0;bottom=0;right=0;pointerEvents=1;fontSize=16;sketch=1;hachureGap=4;jiggle=2;curveFitting=1;fontFamily=Architects Daughter;fontSource=https%3A%2F%2Ffonts.googleapis.com%2Fcss%3Ffamily%3DArchitects%2BDaughter;" parent="KPx5T1zz_B8qp5kBZjDh-46" vertex="1">
          <mxGeometry width="33" height="20" as="geometry">
            <mxRectangle width="33" height="20" as="alternateBounds" />
          </mxGeometry>
        </mxCell>
        <mxCell id="KPx5T1zz_B8qp5kBZjDh-48" value="" style="shape=partialRectangle;html=1;whiteSpace=wrap;connectable=0;strokeColor=inherit;overflow=hidden;fillColor=none;top=0;left=0;bottom=0;right=0;pointerEvents=1;fontSize=16;sketch=1;hachureGap=4;jiggle=2;curveFitting=1;fontFamily=Architects Daughter;fontSource=https%3A%2F%2Ffonts.googleapis.com%2Fcss%3Ffamily%3DArchitects%2BDaughter;" parent="KPx5T1zz_B8qp5kBZjDh-46" vertex="1">
          <mxGeometry x="33" width="32" height="20" as="geometry">
            <mxRectangle width="32" height="20" as="alternateBounds" />
          </mxGeometry>
        </mxCell>
        <mxCell id="KPx5T1zz_B8qp5kBZjDh-49" value="" style="shape=partialRectangle;html=1;whiteSpace=wrap;connectable=0;strokeColor=inherit;overflow=hidden;fillColor=none;top=0;left=0;bottom=0;right=0;pointerEvents=1;fontSize=16;sketch=1;hachureGap=4;jiggle=2;curveFitting=1;fontFamily=Architects Daughter;fontSource=https%3A%2F%2Ffonts.googleapis.com%2Fcss%3Ffamily%3DArchitects%2BDaughter;" parent="KPx5T1zz_B8qp5kBZjDh-46" vertex="1">
          <mxGeometry x="65" width="35" height="20" as="geometry">
            <mxRectangle width="35" height="20" as="alternateBounds" />
          </mxGeometry>
        </mxCell>
        <mxCell id="KPx5T1zz_B8qp5kBZjDh-62" style="shape=partialRectangle;html=1;whiteSpace=wrap;connectable=0;strokeColor=inherit;overflow=hidden;fillColor=none;top=0;left=0;bottom=0;right=0;pointerEvents=1;fontSize=16;sketch=1;hachureGap=4;jiggle=2;curveFitting=1;fontFamily=Architects Daughter;fontSource=https%3A%2F%2Ffonts.googleapis.com%2Fcss%3Ffamily%3DArchitects%2BDaughter;" parent="KPx5T1zz_B8qp5kBZjDh-46" vertex="1">
          <mxGeometry x="100" width="35" height="20" as="geometry">
            <mxRectangle width="35" height="20" as="alternateBounds" />
          </mxGeometry>
        </mxCell>
        <mxCell id="KPx5T1zz_B8qp5kBZjDh-50" value="" style="shape=tableRow;horizontal=0;startSize=0;swimlaneHead=0;swimlaneBody=0;strokeColor=inherit;top=0;left=0;bottom=0;right=0;collapsible=0;dropTarget=0;fillColor=none;points=[[0,0.5],[1,0.5]];portConstraint=eastwest;fontSize=16;sketch=1;hachureGap=4;jiggle=2;curveFitting=1;fontFamily=Architects Daughter;fontSource=https%3A%2F%2Ffonts.googleapis.com%2Fcss%3Ffamily%3DArchitects%2BDaughter;" parent="KPx5T1zz_B8qp5kBZjDh-33" vertex="1">
          <mxGeometry y="100" width="135" height="20" as="geometry" />
        </mxCell>
        <mxCell id="KPx5T1zz_B8qp5kBZjDh-51" value="" style="shape=partialRectangle;html=1;whiteSpace=wrap;connectable=0;strokeColor=inherit;overflow=hidden;fillColor=none;top=0;left=0;bottom=0;right=0;pointerEvents=1;fontSize=16;sketch=1;hachureGap=4;jiggle=2;curveFitting=1;fontFamily=Architects Daughter;fontSource=https%3A%2F%2Ffonts.googleapis.com%2Fcss%3Ffamily%3DArchitects%2BDaughter;" parent="KPx5T1zz_B8qp5kBZjDh-50" vertex="1">
          <mxGeometry width="33" height="20" as="geometry">
            <mxRectangle width="33" height="20" as="alternateBounds" />
          </mxGeometry>
        </mxCell>
        <mxCell id="KPx5T1zz_B8qp5kBZjDh-52" value="" style="shape=partialRectangle;html=1;whiteSpace=wrap;connectable=0;strokeColor=inherit;overflow=hidden;fillColor=none;top=0;left=0;bottom=0;right=0;pointerEvents=1;fontSize=16;sketch=1;hachureGap=4;jiggle=2;curveFitting=1;fontFamily=Architects Daughter;fontSource=https%3A%2F%2Ffonts.googleapis.com%2Fcss%3Ffamily%3DArchitects%2BDaughter;" parent="KPx5T1zz_B8qp5kBZjDh-50" vertex="1">
          <mxGeometry x="33" width="32" height="20" as="geometry">
            <mxRectangle width="32" height="20" as="alternateBounds" />
          </mxGeometry>
        </mxCell>
        <mxCell id="KPx5T1zz_B8qp5kBZjDh-53" value="" style="shape=partialRectangle;html=1;whiteSpace=wrap;connectable=0;strokeColor=inherit;overflow=hidden;fillColor=none;top=0;left=0;bottom=0;right=0;pointerEvents=1;fontSize=16;sketch=1;hachureGap=4;jiggle=2;curveFitting=1;fontFamily=Architects Daughter;fontSource=https%3A%2F%2Ffonts.googleapis.com%2Fcss%3Ffamily%3DArchitects%2BDaughter;" parent="KPx5T1zz_B8qp5kBZjDh-50" vertex="1">
          <mxGeometry x="65" width="35" height="20" as="geometry">
            <mxRectangle width="35" height="20" as="alternateBounds" />
          </mxGeometry>
        </mxCell>
        <mxCell id="KPx5T1zz_B8qp5kBZjDh-63" style="shape=partialRectangle;html=1;whiteSpace=wrap;connectable=0;strokeColor=inherit;overflow=hidden;fillColor=none;top=0;left=0;bottom=0;right=0;pointerEvents=1;fontSize=16;sketch=1;hachureGap=4;jiggle=2;curveFitting=1;fontFamily=Architects Daughter;fontSource=https%3A%2F%2Ffonts.googleapis.com%2Fcss%3Ffamily%3DArchitects%2BDaughter;" parent="KPx5T1zz_B8qp5kBZjDh-50" vertex="1">
          <mxGeometry x="100" width="35" height="20" as="geometry">
            <mxRectangle width="35" height="20" as="alternateBounds" />
          </mxGeometry>
        </mxCell>
        <mxCell id="iZ_dV3kTZDY7ZV6axB1K-0" value="Acquire" style="text;strokeColor=none;align=center;fillColor=none;html=1;verticalAlign=middle;whiteSpace=wrap;rounded=0;fontSize=20;fontFamily=Architects Daughter;" vertex="1" parent="WIyWlLk6GJQsqaUBKTNV-1">
          <mxGeometry x="450" y="222" width="60" height="30" as="geometry" />
        </mxCell>
        <mxCell id="iZ_dV3kTZDY7ZV6axB1K-1" value="Curate" style="text;strokeColor=none;align=center;fillColor=none;html=1;verticalAlign=middle;whiteSpace=wrap;rounded=0;fontSize=20;fontFamily=Architects Daughter;" vertex="1" parent="WIyWlLk6GJQsqaUBKTNV-1">
          <mxGeometry x="571" y="222" width="60" height="30" as="geometry" />
        </mxCell>
        <mxCell id="iZ_dV3kTZDY7ZV6axB1K-2" value="Transform" style="text;strokeColor=none;align=center;fillColor=none;html=1;verticalAlign=middle;whiteSpace=wrap;rounded=0;fontSize=20;fontFamily=Architects Daughter;" vertex="1" parent="WIyWlLk6GJQsqaUBKTNV-1">
          <mxGeometry x="708" y="222" width="60" height="30" as="geometry" />
        </mxCell>
        <mxCell id="iZ_dV3kTZDY7ZV6axB1K-3" value="EDA" style="text;strokeColor=default;align=center;fillColor=none;html=1;verticalAlign=middle;whiteSpace=wrap;rounded=0;fontSize=20;fontFamily=Architects Daughter;" vertex="1" parent="WIyWlLk6GJQsqaUBKTNV-1">
          <mxGeometry x="850" y="285" width="60" height="30" as="geometry" />
        </mxCell>
        <mxCell id="iZ_dV3kTZDY7ZV6axB1K-30" style="rounded=0;sketch=1;hachureGap=4;jiggle=2;curveFitting=1;orthogonalLoop=1;jettySize=auto;html=1;fontFamily=Architects Daughter;fontSource=https%3A%2F%2Ffonts.googleapis.com%2Fcss%3Ffamily%3DArchitects%2BDaughter;fontSize=16;entryX=0.589;entryY=0.001;entryDx=0;entryDy=0;entryPerimeter=0;" edge="1" parent="WIyWlLk6GJQsqaUBKTNV-1" source="iZ_dV3kTZDY7ZV6axB1K-4" target="iZ_dV3kTZDY7ZV6axB1K-21">
          <mxGeometry relative="1" as="geometry">
            <mxPoint x="1001" y="466" as="targetPoint" />
          </mxGeometry>
        </mxCell>
        <mxCell id="iZ_dV3kTZDY7ZV6axB1K-4" value="PDA" style="text;strokeColor=default;align=center;fillColor=none;html=1;verticalAlign=middle;whiteSpace=wrap;rounded=0;fontSize=20;fontFamily=Architects Daughter;" vertex="1" parent="WIyWlLk6GJQsqaUBKTNV-1">
          <mxGeometry x="971" y="285" width="60" height="30" as="geometry" />
        </mxCell>
        <mxCell id="iZ_dV3kTZDY7ZV6axB1K-5" value="IDA" style="text;strokeColor=default;align=center;fillColor=none;html=1;verticalAlign=middle;whiteSpace=wrap;rounded=0;fontSize=20;fontFamily=Architects Daughter;" vertex="1" parent="WIyWlLk6GJQsqaUBKTNV-1">
          <mxGeometry x="1089" y="285" width="60" height="30" as="geometry" />
        </mxCell>
        <mxCell id="iZ_dV3kTZDY7ZV6axB1K-12" value="" style="group" vertex="1" connectable="0" parent="WIyWlLk6GJQsqaUBKTNV-1">
          <mxGeometry x="439" y="488" width="73" height="76" as="geometry" />
        </mxCell>
        <mxCell id="iZ_dV3kTZDY7ZV6axB1K-6" value="Doc." style="whiteSpace=wrap;html=1;shape=mxgraph.basic.document;sketch=1;hachureGap=4;jiggle=2;curveFitting=1;fontFamily=Architects Daughter;fontSource=https%3A%2F%2Ffonts.googleapis.com%2Fcss%3Ffamily%3DArchitects%2BDaughter;fontSize=20;" vertex="1" parent="iZ_dV3kTZDY7ZV6axB1K-12">
          <mxGeometry width="50" height="50" as="geometry" />
        </mxCell>
        <mxCell id="iZ_dV3kTZDY7ZV6axB1K-10" value="" style="shape=datastore;whiteSpace=wrap;html=1;sketch=1;hachureGap=4;jiggle=2;curveFitting=1;fontFamily=Architects Daughter;fontSource=https%3A%2F%2Ffonts.googleapis.com%2Fcss%3Ffamily%3DArchitects%2BDaughter;fontSize=20;fillColor=#FFFFFF;" vertex="1" parent="iZ_dV3kTZDY7ZV6axB1K-12">
          <mxGeometry x="34" y="37" width="39" height="39" as="geometry" />
        </mxCell>
        <mxCell id="iZ_dV3kTZDY7ZV6axB1K-14" value="" style="group" vertex="1" connectable="0" parent="WIyWlLk6GJQsqaUBKTNV-1">
          <mxGeometry x="577" y="488" width="73" height="76" as="geometry" />
        </mxCell>
        <mxCell id="iZ_dV3kTZDY7ZV6axB1K-15" value="Doc." style="whiteSpace=wrap;html=1;shape=mxgraph.basic.document;sketch=1;hachureGap=4;jiggle=2;curveFitting=1;fontFamily=Architects Daughter;fontSource=https%3A%2F%2Ffonts.googleapis.com%2Fcss%3Ffamily%3DArchitects%2BDaughter;fontSize=20;" vertex="1" parent="iZ_dV3kTZDY7ZV6axB1K-14">
          <mxGeometry width="50" height="50" as="geometry" />
        </mxCell>
        <mxCell id="iZ_dV3kTZDY7ZV6axB1K-16" value="" style="shape=datastore;whiteSpace=wrap;html=1;sketch=1;hachureGap=4;jiggle=2;curveFitting=1;fontFamily=Architects Daughter;fontSource=https%3A%2F%2Ffonts.googleapis.com%2Fcss%3Ffamily%3DArchitects%2BDaughter;fontSize=20;fillColor=#FFFFFF;" vertex="1" parent="iZ_dV3kTZDY7ZV6axB1K-14">
          <mxGeometry x="34" y="37" width="39" height="39" as="geometry" />
        </mxCell>
        <mxCell id="iZ_dV3kTZDY7ZV6axB1K-17" value="" style="group" vertex="1" connectable="0" parent="WIyWlLk6GJQsqaUBKTNV-1">
          <mxGeometry x="714" y="488" width="73" height="76" as="geometry" />
        </mxCell>
        <mxCell id="iZ_dV3kTZDY7ZV6axB1K-18" value="Doc." style="whiteSpace=wrap;html=1;shape=mxgraph.basic.document;sketch=1;hachureGap=4;jiggle=2;curveFitting=1;fontFamily=Architects Daughter;fontSource=https%3A%2F%2Ffonts.googleapis.com%2Fcss%3Ffamily%3DArchitects%2BDaughter;fontSize=20;" vertex="1" parent="iZ_dV3kTZDY7ZV6axB1K-17">
          <mxGeometry x="-1" width="50" height="50" as="geometry" />
        </mxCell>
        <mxCell id="iZ_dV3kTZDY7ZV6axB1K-19" value="" style="shape=datastore;whiteSpace=wrap;html=1;sketch=1;hachureGap=4;jiggle=2;curveFitting=1;fontFamily=Architects Daughter;fontSource=https%3A%2F%2Ffonts.googleapis.com%2Fcss%3Ffamily%3DArchitects%2BDaughter;fontSize=20;fillColor=#FFFFFF;" vertex="1" parent="iZ_dV3kTZDY7ZV6axB1K-17">
          <mxGeometry x="34" y="37" width="39" height="39" as="geometry" />
        </mxCell>
        <mxCell id="iZ_dV3kTZDY7ZV6axB1K-20" value="" style="group" vertex="1" connectable="0" parent="WIyWlLk6GJQsqaUBKTNV-1">
          <mxGeometry x="972" y="488" width="73" height="76" as="geometry" />
        </mxCell>
        <mxCell id="iZ_dV3kTZDY7ZV6axB1K-21" value="Doc." style="whiteSpace=wrap;html=1;shape=mxgraph.basic.document;sketch=1;hachureGap=4;jiggle=2;curveFitting=1;fontFamily=Architects Daughter;fontSource=https%3A%2F%2Ffonts.googleapis.com%2Fcss%3Ffamily%3DArchitects%2BDaughter;fontSize=20;" vertex="1" parent="iZ_dV3kTZDY7ZV6axB1K-20">
          <mxGeometry width="50" height="50" as="geometry" />
        </mxCell>
        <mxCell id="iZ_dV3kTZDY7ZV6axB1K-22" value="" style="shape=datastore;whiteSpace=wrap;html=1;sketch=1;hachureGap=4;jiggle=2;curveFitting=1;fontFamily=Architects Daughter;fontSource=https%3A%2F%2Ffonts.googleapis.com%2Fcss%3Ffamily%3DArchitects%2BDaughter;fontSize=20;fillColor=#FFFFFF;" vertex="1" parent="iZ_dV3kTZDY7ZV6axB1K-20">
          <mxGeometry x="34" y="37" width="39" height="39" as="geometry" />
        </mxCell>
        <mxCell id="iZ_dV3kTZDY7ZV6axB1K-24" value="Report" style="whiteSpace=wrap;html=1;shape=mxgraph.basic.document;sketch=1;hachureGap=4;jiggle=2;curveFitting=1;fontFamily=Architects Daughter;fontSource=https%3A%2F%2Ffonts.googleapis.com%2Fcss%3Ffamily%3DArchitects%2BDaughter;fontSize=20;" vertex="1" parent="WIyWlLk6GJQsqaUBKTNV-1">
          <mxGeometry x="1339" y="488" width="111" height="50" as="geometry" />
        </mxCell>
        <mxCell id="iZ_dV3kTZDY7ZV6axB1K-26" value="Prospectus" style="whiteSpace=wrap;html=1;shape=mxgraph.basic.document;sketch=1;hachureGap=4;jiggle=2;curveFitting=1;fontFamily=Architects Daughter;fontSource=https%3A%2F%2Ffonts.googleapis.com%2Fcss%3Ffamily%3DArchitects%2BDaughter;fontSize=20;" vertex="1" parent="WIyWlLk6GJQsqaUBKTNV-1">
          <mxGeometry x="139" y="488" width="111" height="50" as="geometry" />
        </mxCell>
        <mxCell id="iZ_dV3kTZDY7ZV6axB1K-27" value="" style="strokeWidth=2;html=1;shape=mxgraph.flowchart.annotation_1;align=left;pointerEvents=1;sketch=1;hachureGap=4;jiggle=2;curveFitting=1;fontFamily=Architects Daughter;fontSource=https%3A%2F%2Ffonts.googleapis.com%2Fcss%3Ffamily%3DArchitects%2BDaughter;fontSize=20;" vertex="1" parent="WIyWlLk6GJQsqaUBKTNV-1">
          <mxGeometry x="98" y="216" width="50" height="250" as="geometry" />
        </mxCell>
        <mxCell id="iZ_dV3kTZDY7ZV6axB1K-28" value="" style="strokeWidth=2;html=1;shape=mxgraph.flowchart.annotation_1;align=left;pointerEvents=1;sketch=1;hachureGap=4;jiggle=2;curveFitting=1;fontFamily=Architects Daughter;fontSource=https%3A%2F%2Ffonts.googleapis.com%2Fcss%3Ffamily%3DArchitects%2BDaughter;fontSize=20;flipH=1;" vertex="1" parent="WIyWlLk6GJQsqaUBKTNV-1">
          <mxGeometry x="1445" y="216" width="50" height="250" as="geometry" />
        </mxCell>
        <mxCell id="iZ_dV3kTZDY7ZV6axB1K-29" style="rounded=0;sketch=1;hachureGap=4;jiggle=2;curveFitting=1;orthogonalLoop=1;jettySize=auto;html=1;entryX=0.5;entryY=0;entryDx=0;entryDy=0;entryPerimeter=0;fontFamily=Architects Daughter;fontSource=https%3A%2F%2Ffonts.googleapis.com%2Fcss%3Ffamily%3DArchitects%2BDaughter;fontSize=16;" edge="1" parent="WIyWlLk6GJQsqaUBKTNV-1" source="iZ_dV3kTZDY7ZV6axB1K-3" target="iZ_dV3kTZDY7ZV6axB1K-21">
          <mxGeometry relative="1" as="geometry" />
        </mxCell>
        <mxCell id="iZ_dV3kTZDY7ZV6axB1K-31" style="rounded=1;sketch=1;hachureGap=4;jiggle=2;curveFitting=1;orthogonalLoop=1;jettySize=auto;html=1;entryX=0.747;entryY=0.067;entryDx=0;entryDy=0;entryPerimeter=0;fontFamily=Architects Daughter;fontSource=https%3A%2F%2Ffonts.googleapis.com%2Fcss%3Ffamily%3DArchitects%2BDaughter;fontSize=16;curved=0;" edge="1" parent="WIyWlLk6GJQsqaUBKTNV-1" source="iZ_dV3kTZDY7ZV6axB1K-5" target="iZ_dV3kTZDY7ZV6axB1K-21">
          <mxGeometry relative="1" as="geometry" />
        </mxCell>
        <mxCell id="iZ_dV3kTZDY7ZV6axB1K-32" style="edgeStyle=orthogonalEdgeStyle;rounded=1;sketch=1;hachureGap=4;jiggle=2;curveFitting=1;orthogonalLoop=1;jettySize=auto;html=1;entryX=0.5;entryY=0;entryDx=0;entryDy=0;entryPerimeter=0;fontFamily=Architects Daughter;fontSource=https%3A%2F%2Ffonts.googleapis.com%2Fcss%3Ffamily%3DArchitects%2BDaughter;fontSize=16;" edge="1" parent="WIyWlLk6GJQsqaUBKTNV-1" source="KPx5T1zz_B8qp5kBZjDh-8" target="iZ_dV3kTZDY7ZV6axB1K-15">
          <mxGeometry relative="1" as="geometry" />
        </mxCell>
        <mxCell id="iZ_dV3kTZDY7ZV6axB1K-33" style="rounded=1;sketch=1;hachureGap=4;jiggle=2;curveFitting=1;orthogonalLoop=1;jettySize=auto;html=1;entryX=0.5;entryY=0;entryDx=0;entryDy=0;entryPerimeter=0;fontFamily=Architects Daughter;fontSource=https%3A%2F%2Ffonts.googleapis.com%2Fcss%3Ffamily%3DArchitects%2BDaughter;fontSize=16;curved=0;" edge="1" parent="WIyWlLk6GJQsqaUBKTNV-1" source="KPx5T1zz_B8qp5kBZjDh-22" target="iZ_dV3kTZDY7ZV6axB1K-6">
          <mxGeometry relative="1" as="geometry" />
        </mxCell>
        <mxCell id="iZ_dV3kTZDY7ZV6axB1K-34" style="edgeStyle=orthogonalEdgeStyle;rounded=1;sketch=1;hachureGap=4;jiggle=2;curveFitting=1;orthogonalLoop=1;jettySize=auto;html=1;entryX=0.5;entryY=0;entryDx=0;entryDy=0;entryPerimeter=0;fontFamily=Architects Daughter;fontSource=https%3A%2F%2Ffonts.googleapis.com%2Fcss%3Ffamily%3DArchitects%2BDaughter;fontSize=16;" edge="1" parent="WIyWlLk6GJQsqaUBKTNV-1" source="KPx5T1zz_B8qp5kBZjDh-33" target="iZ_dV3kTZDY7ZV6axB1K-18">
          <mxGeometry relative="1" as="geometry" />
        </mxCell>
        <mxCell id="iZ_dV3kTZDY7ZV6axB1K-39" value="- Area&lt;br&gt;- Question&lt;br&gt;- Aim&lt;br&gt;- Methods&lt;br&gt;- Evaluation" style="text;strokeColor=none;align=left;fillColor=none;html=1;verticalAlign=middle;whiteSpace=wrap;rounded=0;fontSize=20;fontFamily=Architects Daughter;" vertex="1" parent="WIyWlLk6GJQsqaUBKTNV-1">
          <mxGeometry x="116" y="223" width="134" height="230" as="geometry" />
        </mxCell>
        <mxCell id="iZ_dV3kTZDY7ZV6axB1K-40" value="- Motivation&lt;br&gt;- Methods&lt;br&gt;- Analysis&lt;br&gt;- Discussion" style="text;strokeColor=none;align=left;fillColor=none;html=1;verticalAlign=middle;whiteSpace=wrap;rounded=0;fontSize=20;fontFamily=Architects Daughter;" vertex="1" parent="WIyWlLk6GJQsqaUBKTNV-1">
          <mxGeometry x="1366" y="223" width="134" height="230" as="geometry" />
        </mxCell>
        <mxCell id="iZ_dV3kTZDY7ZV6axB1K-41" value="" style="strokeWidth=2;html=1;shape=mxgraph.flowchart.annotation_2;align=left;labelPosition=right;pointerEvents=1;sketch=1;hachureGap=4;jiggle=2;curveFitting=1;fontFamily=Architects Daughter;fontSource=https%3A%2F%2Ffonts.googleapis.com%2Fcss%3Ffamily%3DArchitects%2BDaughter;fontSize=20;direction=north;" vertex="1" parent="WIyWlLk6GJQsqaUBKTNV-1">
          <mxGeometry x="200" y="616" width="1200" height="50" as="geometry" />
        </mxCell>
        <mxCell id="iZ_dV3kTZDY7ZV6axB1K-46" value="Open science" style="swimlane;whiteSpace=wrap;html=1;sketch=1;hachureGap=4;jiggle=2;curveFitting=1;fontFamily=Architects Daughter;fontSource=https%3A%2F%2Ffonts.googleapis.com%2Fcss%3Ffamily%3DArchitects%2BDaughter;fontSize=20;" vertex="1" parent="WIyWlLk6GJQsqaUBKTNV-1">
          <mxGeometry x="102" y="662" width="188" height="138" as="geometry" />
        </mxCell>
        <mxCell id="iZ_dV3kTZDY7ZV6axB1K-48" style="edgeStyle=orthogonalEdgeStyle;rounded=0;sketch=1;hachureGap=4;jiggle=2;curveFitting=1;orthogonalLoop=1;jettySize=auto;html=1;fontFamily=Architects Daughter;fontSource=https%3A%2F%2Ffonts.googleapis.com%2Fcss%3Ffamily%3DArchitects%2BDaughter;fontSize=16;" edge="1" parent="WIyWlLk6GJQsqaUBKTNV-1" source="iZ_dV3kTZDY7ZV6axB1K-47">
          <mxGeometry relative="1" as="geometry">
            <mxPoint x="600" y="733.0000000000002" as="targetPoint" />
          </mxGeometry>
        </mxCell>
        <mxCell id="iZ_dV3kTZDY7ZV6axB1K-49" style="edgeStyle=orthogonalEdgeStyle;rounded=0;sketch=1;hachureGap=4;jiggle=2;curveFitting=1;orthogonalLoop=1;jettySize=auto;html=1;fontFamily=Architects Daughter;fontSource=https%3A%2F%2Ffonts.googleapis.com%2Fcss%3Ffamily%3DArchitects%2BDaughter;fontSize=16;" edge="1" parent="WIyWlLk6GJQsqaUBKTNV-1" source="iZ_dV3kTZDY7ZV6axB1K-47">
          <mxGeometry relative="1" as="geometry">
            <mxPoint x="1000" y="733.0000000000002" as="targetPoint" />
          </mxGeometry>
        </mxCell>
        <mxCell id="iZ_dV3kTZDY7ZV6axB1K-47" value="Code repo" style="ellipse;shape=cloud;whiteSpace=wrap;html=1;sketch=1;hachureGap=4;jiggle=2;curveFitting=1;fontFamily=Architects Daughter;fontSource=https%3A%2F%2Ffonts.googleapis.com%2Fcss%3Ffamily%3DArchitects%2BDaughter;fontSize=20;" vertex="1" parent="WIyWlLk6GJQsqaUBKTNV-1">
          <mxGeometry x="700" y="666" width="201.01" height="134" as="geometry" />
        </mxCell>
        <mxCell id="iZ_dV3kTZDY7ZV6axB1K-50" value="Conference" style="swimlane;fontStyle=0;childLayout=stackLayout;horizontal=1;startSize=30;horizontalStack=0;resizeParent=1;resizeParentMax=0;resizeLast=0;collapsible=1;marginBottom=0;whiteSpace=wrap;html=1;sketch=1;hachureGap=4;jiggle=2;curveFitting=1;fontFamily=Architects Daughter;fontSource=https%3A%2F%2Ffonts.googleapis.com%2Fcss%3Ffamily%3DArchitects%2BDaughter;fontSize=20;" vertex="1" parent="WIyWlLk6GJQsqaUBKTNV-1">
          <mxGeometry x="1326" y="659" width="116.67" height="120" as="geometry" />
        </mxCell>
        <mxCell id="iZ_dV3kTZDY7ZV6axB1K-51" value="Item 1" style="text;strokeColor=none;fillColor=none;align=left;verticalAlign=middle;spacingLeft=4;spacingRight=4;overflow=hidden;points=[[0,0.5],[1,0.5]];portConstraint=eastwest;rotatable=0;whiteSpace=wrap;html=1;fontSize=20;fontFamily=Architects Daughter;" vertex="1" parent="iZ_dV3kTZDY7ZV6axB1K-50">
          <mxGeometry y="30" width="116.67" height="30" as="geometry" />
        </mxCell>
        <mxCell id="iZ_dV3kTZDY7ZV6axB1K-52" value="Item 2" style="text;strokeColor=none;fillColor=none;align=left;verticalAlign=middle;spacingLeft=4;spacingRight=4;overflow=hidden;points=[[0,0.5],[1,0.5]];portConstraint=eastwest;rotatable=0;whiteSpace=wrap;html=1;fontSize=20;fontFamily=Architects Daughter;" vertex="1" parent="iZ_dV3kTZDY7ZV6axB1K-50">
          <mxGeometry y="60" width="116.67" height="30" as="geometry" />
        </mxCell>
        <mxCell id="iZ_dV3kTZDY7ZV6axB1K-53" value="Item 3" style="text;strokeColor=none;fillColor=none;align=left;verticalAlign=middle;spacingLeft=4;spacingRight=4;overflow=hidden;points=[[0,0.5],[1,0.5]];portConstraint=eastwest;rotatable=0;whiteSpace=wrap;html=1;fontSize=20;fontFamily=Architects Daughter;" vertex="1" parent="iZ_dV3kTZDY7ZV6axB1K-50">
          <mxGeometry y="90" width="116.67" height="30" as="geometry" />
        </mxCell>
        <mxCell id="iZ_dV3kTZDY7ZV6axB1K-45" value="Journal" style="shape=note;whiteSpace=wrap;html=1;backgroundOutline=1;darkOpacity=0.05;sketch=1;hachureGap=4;jiggle=2;curveFitting=1;fontFamily=Architects Daughter;fontSource=https%3A%2F%2Ffonts.googleapis.com%2Fcss%3Ffamily%3DArchitects%2BDaughter;fontSize=20;fillStyle=solid;fillColor=#FFFFFF;" vertex="1" parent="WIyWlLk6GJQsqaUBKTNV-1">
          <mxGeometry x="1408" y="693" width="85.6" height="107" as="geometry" />
        </mxCell>
      </root>
    </mxGraphModel>
  </diagram>
</mxfile>
